# xmcd CD database file
#
# Track frame offsets:
#	150
#	15619
#	32237
#	43744
#	57937
#	70777
#	88999
#	103891
#	118275
#	132754
#	149209
#	163706
#	178499
#	192649
#	209402
#	222149
#	241853
#	259397
#	274164
#	291791
#
# Disc length: 4147 seconds
#
# Revision: 0
# Processed by: cddbd v1.5.2PL0 Copyright (c) Steve Scherf et al.
# Submitted via: CDex 2.11
#
DISCID=4e103114
DTITLE=Various Artist - The Hottest Stars On The Planet - CD2
DYEAR=2015
DGENRE=Country
TTITLE0=O'Shea - Here I Am
TTITLE1=Chris Young - Tomorrow
TTITLE2=Rodney Atkins - Eat Sleep Love You Repeat
TTITLE3=Wynonna - When Love Starts Talkin'
TTITLE4=Gretchen Wilson - California Girls
TTITLE5=The Doobie Brothers - What A Fool Believes
TTITLE6=Pistol Annies - Takin Pills
TTITLE7=Jerrod Niemann - Buzz Back Girl
TTITLE8=Jake Owen - Beachin
TTITLE9=Patty Loveless - Lovin All Night
TTITLE10=Ruthie Collins - Ramblin Man
TTITLE11=Sara Evans - Slow Me Down
TTITLE12=Hank Williams Jr - Move It On Over
TTITLE13=Casey James - Crying On A Suitcase
TTITLE14=Johnny Cash - Folsom Prison Blues
TTITLE15=Kix Brooks - New To This Town Featuring Joe Wal
TTITLE16=Jetty Road - What We Did Last Night
TTITLE17=Mo Pitney - Country
TTITLE18=The Swon Brothers - Pray For You
TTITLE19=Logan Mize - Cant Get Away From A Good Time
EXTD=YEAR: 2015
EXTT0=
EXTT1=
EXTT2=
EXTT3=
EXTT4=
EXTT5=
EXTT6=
EXTT7=
EXTT8=
EXTT9=
EXTT10=
EXTT11=
EXTT12=
EXTT13=
EXTT14=
EXTT15=
EXTT16=
EXTT17=
EXTT18=
EXTT19=
PLAYORDER=
